<svg xmlns="http://www.w3.org/2000/svg" width="74" height="79" fill="none"><g stroke="#B2282F" filter="url(#a)"><path d="M65.379 14.164c1.59-.567 2.766-.761 3.458-.621.324.066.482.192.563.333.09.154.145.427.05.898a137.6 137.6 0 0 0 0 54.452c.095.471.04.744-.05.898-.081.14-.24.267-.563.333-.692.14-1.868-.054-3.458-.621-3.135-1.118-7.516-3.545-11.974-6.656-4.453-3.109-8.952-6.877-12.33-10.655-1.689-1.888-3.088-3.769-4.063-5.561C36.034 45.167 35.5 43.49 35.5 42s.534-3.167 1.512-4.964c.975-1.792 2.374-3.673 4.063-5.561 3.378-3.778 7.877-7.546 12.33-10.655 4.458-3.111 8.839-5.538 11.974-6.656ZM8.621 56.836c-1.59.567-2.766.761-3.458.621-.324-.066-.482-.192-.563-.333-.09-.154-.145-.427-.05-.898a137.6 137.6 0 0 0 0-54.452c-.095-.471-.04-.744.05-.898.081-.14.24-.267.563-.333.692-.14 1.868.054 3.458.621 3.135 1.118 7.516 3.545 11.974 6.656 4.454 3.109 8.952 6.877 12.33 10.655 1.689 1.888 3.088 3.769 4.063 5.561C37.966 25.833 38.5 27.51 38.5 29c0 1.49-.534 3.167-1.512 4.964-.975 1.792-2.374 3.673-4.063 5.561-3.378 3.778-7.876 7.546-12.33 10.655-4.458 3.111-8.839 5.538-11.974 6.656Z"/></g><defs><filter id="a" width="74" height="79" x="0" y="0" color-interpolation-filters="sRGB" filterUnits="userSpaceOnUse"><feFlood flood-opacity="0" result="BackgroundImageFix"/><feColorMatrix in="SourceAlpha" result="hardAlpha" values="0 0 0 0 0 0 0 0 0 0 0 0 0 0 0 0 0 0 127 0"/><feOffset dy="4"/><feGaussianBlur stdDeviation="2"/><feComposite in2="hardAlpha" operator="out"/><feColorMatrix values="0 0 0 0 0 0 0 0 0 0 0 0 0 0 0 0 0 0 0.25 0"/><feBlend in2="BackgroundImageFix" result="effect1_dropShadow_168_40"/><feBlend in="SourceGraphic" in2="effect1_dropShadow_168_40" result="shape"/></filter></defs></svg>