<svg xmlns="http://www.w3.org/2000/svg" width="69" height="68" fill="none"><path stroke="#B2282F" d="M33.499 35.704c.004.444-.001 1.09-.036 1.895a45 45 0 0 1-.74 6.361c-.962 5.04-3.075 11.127-7.654 15.499-4.584 4.377-10.82 6.392-15.956 7.307a48 48 0 0 1-6.465.7c-.815.032-1.47.037-1.919.033q-.122-.002-.224-.005L.5 67.302c-.004-.428 0-1.052.034-1.83.068-1.555.255-3.724.732-6.167.955-4.898 3.062-10.848 7.643-15.225 4.586-4.381 10.834-6.534 15.978-7.587a51 51 0 0 1 6.476-.89 41 41 0 0 1 1.923-.095l.208-.004zM.712.509c.45.011 1.105.039 1.92.1 1.634.124 3.91.387 6.474.944 5.14 1.115 11.386 3.398 15.975 8.046 4.585 4.647 6.695 10.966 7.651 16.168.477 2.595.665 4.897.733 6.55.034.825.038 1.488.034 1.943q-.002.128-.005.234l-.224.005c-.45.004-1.103 0-1.918-.034a46 46 0 0 1-6.461-.741c-5.132-.968-11.367-3.105-15.952-7.751-4.583-4.642-6.7-11.107-7.662-16.46-.48-2.669-.67-5.046-.74-6.755C.502 1.904.497 1.218.501.746Q.502.614.505.505zM34.734 35.508c.464.01 1.14.036 1.98.094 1.684.117 4.03.366 6.672.891 5.298 1.053 11.733 3.208 16.459 7.592 4.716 4.378 6.883 10.328 7.866 15.223.49 2.442.683 4.61.753 6.165.035.777.04 1.401.035 1.829q-.002.104-.005.192l-.245.005c-.463.004-1.138 0-1.977-.032a51 51 0 0 1-6.66-.7c-5.29-.914-11.714-2.931-16.435-7.314-4.714-4.373-6.888-10.458-7.877-15.496a43.5 43.5 0 0 1-.762-6.36c-.036-.803-.04-1.45-.037-1.893q0-.108.003-.2zM68.499.746c.004.471-.001 1.158-.037 2.012a49 49 0 0 1-.763 6.754c-.99 5.35-3.167 11.813-7.885 16.456h-.002c-4.721 4.648-11.143 6.786-16.43 7.755a48 48 0 0 1-6.655.742c-.84.034-1.513.038-1.975.034-.09 0-.173-.005-.247-.006l-.004-.233c-.004-.455 0-1.117.035-1.943.07-1.652.263-3.953.754-6.547.984-5.2 3.155-11.519 7.876-16.166 4.726-4.65 11.16-6.935 16.454-8.051a51 51 0 0 1 6.667-.944c.84-.062 1.515-.089 1.979-.1l.228-.004z"/></svg>