<svg xmlns="http://www.w3.org/2000/svg" width="147" height="79" fill="none"><g clip-path="url(#a)"><mask id="b" width="260" height="148" x="-59" y="-33" maskUnits="userSpaceOnUse" style="mask-type:luminance"><path fill="#fff" d="M200.426-32.356H-58.676v146.951h259.102z"/></mask><g mask="url(#b)"><path fill="#B2282F" d="M45.06 22.682h5.114l14.628 21.172V22.682h4.413v27.975h-4.939l-14.79-21.552.013 21.552-4.44-.013z"/></g><mask id="c" width="260" height="148" x="-59" y="-33" maskUnits="userSpaceOnUse" style="mask-type:luminance"><path fill="#fff" d="M200.426-32.356H-58.676v146.951h259.102z"/></mask><g mask="url(#c)"><path fill="#B2282F" d="M100.321 22.655h5.182l8.016 12.45v.04l8.043-12.49h5.196V50.63h-4.413V29.417L115.557 39.8h-4.049l-6.774-10.381-.041 21.212-4.453.027z"/></g><mask id="d" width="260" height="148" x="-59" y="-33" maskUnits="userSpaceOnUse" style="mask-type:luminance"><path fill="#fff" d="M200.426-32.356H-58.676v146.951h259.102z"/></mask><g mask="url(#d)"><path fill="#B2282F" d="m31.646 22.737-4.305-.055-12.348 27.975h5.195l2.659-6.64 1.673-4.204 5.02-11.906 4.993 11.906 1.674 4.204 2.658 6.64h5.223z"/></g><mask id="e" width="260" height="148" x="-59" y="-33" maskUnits="userSpaceOnUse" style="mask-type:luminance"><path fill="#fff" d="M200.426-32.356H-58.676v146.951h259.102z"/></mask><g mask="url(#e)"><path fill="#B2282F" d="m86.867 22.914-4.332-.232L70.2 50.657h5.182l2.659-6.64 1.673-4.204 5.034-11.906 4.98 11.906 1.673 4.204 2.658 6.64h5.196z"/></g><mask id="f" width="260" height="148" x="-59" y="-33" maskUnits="userSpaceOnUse" style="mask-type:luminance"><path fill="#fff" d="M200.426-32.356H-58.676v146.951h259.102z"/></mask><g mask="url(#f)"><path fill="#B2282F" d="M47.138 55.896h-1.336v-.422h3.13v.422h-1.336v3.606h-.458z"/></g><mask id="g" width="260" height="148" x="-59" y="-33" maskUnits="userSpaceOnUse" style="mask-type:luminance"><path fill="#fff" d="M200.426-32.356H-58.676v146.951h259.102z"/></mask><g mask="url(#g)"><mask id="h" width="260" height="148" x="-59" y="-33" maskUnits="userSpaceOnUse" style="mask-type:luminance"><path fill="#fff" d="M200.426-32.356H-58.676v146.951h259.102z"/></mask><g mask="url(#h)"><path fill="#B2282F" d="M49.918 55.474h1.714c.499 0 .877.15 1.133.408.203.205.31.477.31.79v.013c0 .667-.458 1.061-1.08 1.17l1.229 1.647h-.567l-1.16-1.565h-1.134v1.565h-.445zm1.673 2.055c.594 0 1.026-.313 1.026-.83v-.014c0-.503-.378-.789-1.026-.789h-1.228v1.633z"/></g><mask id="i" width="260" height="148" x="-59" y="-33" maskUnits="userSpaceOnUse" style="mask-type:luminance"><path fill="#fff" d="M200.426-32.356H-58.676v146.951h259.102z"/></mask><g mask="url(#i)"><path fill="#B2282F" d="M58.81 55.474h1.39c1.256 0 2.12.871 2.12 2v.014c0 1.13-.864 2.014-2.12 2.014h-1.39zm1.39 3.606c1.013 0 1.66-.68 1.66-1.578v-.014c0-.885-.647-1.592-1.66-1.592h-.93v3.184z"/></g><mask id="j" width="260" height="148" x="-59" y="-33" maskUnits="userSpaceOnUse" style="mask-type:luminance"><path fill="#fff" d="M200.426-32.356H-58.676v146.951h259.102z"/></mask><g mask="url(#j)"><path fill="#B2282F" d="M63.885 55.474h-.445v4.028h.445z"/></g><mask id="k" width="260" height="148" x="-59" y="-33" maskUnits="userSpaceOnUse" style="mask-type:luminance"><path fill="#fff" d="M200.426-32.356H-58.676v146.951h259.102z"/></mask><g mask="url(#k)"><path fill="#B2282F" d="M65.194 55.474h.432l2.51 3.225v-3.225h.432v4.028h-.351l-2.578-3.307v3.307h-.445z"/></g><mask id="l" width="260" height="148" x="-59" y="-33" maskUnits="userSpaceOnUse" style="mask-type:luminance"><path fill="#fff" d="M200.426-32.356H-58.676v146.951h259.102z"/></mask><g mask="url(#l)"><path fill="#B2282F" d="M69.66 57.502c0-1.116.81-2.096 1.998-2.096.675 0 1.093.19 1.484.53l-.297.341c-.296-.272-.66-.463-1.214-.463-.877 0-1.511.749-1.511 1.647v.013c0 .966.607 1.674 1.578 1.674.46 0 .878-.177 1.147-.408v-1.007h-1.214v-.408h1.646v1.605c-.364.34-.917.613-1.606.613-1.241.027-2.01-.898-2.01-2.041"/></g><mask id="m" width="260" height="148" x="-59" y="-33" maskUnits="userSpaceOnUse" style="mask-type:luminance"><path fill="#fff" d="M200.426-32.356H-58.676v146.951h259.102z"/></mask><g mask="url(#m)"><path fill="#B2282F" d="M78.419 58.93c-.365.395-.783.626-1.31.626-.715 0-1.254-.449-1.254-1.13v-.013c0-.53.35-.911.958-1.156-.27-.327-.405-.558-.405-.885v-.013c0-.531.418-.953 1.053-.953.553 0 .971.408.971.912v.013c0 .517-.35.844-.944 1.048l.917.939c.176-.259.338-.558.473-.898l.364.177c-.175.38-.35.721-.58 1.007l.701.72-.337.26zm-.27-.285-1.066-1.116c-.526.204-.77.517-.77.857v.014c0 .435.338.762.837.762.378.013.702-.19.999-.517m-.122-2.3a.556.556 0 0 0-.566-.572c-.365 0-.608.26-.608.586v.013c0 .231.095.422.405.735.513-.177.77-.408.77-.762"/></g><mask id="n" width="260" height="148" x="-59" y="-33" maskUnits="userSpaceOnUse" style="mask-type:luminance"><path fill="#fff" d="M200.426-32.356H-58.676v146.951h259.102z"/></mask><g mask="url(#n)"><path fill="#B2282F" d="M81.82 57.502c0-1.143.85-2.096 2.024-2.096.729 0 1.16.259 1.552.64l-.31.326c-.338-.326-.702-.558-1.256-.558-.877 0-1.538.721-1.538 1.647v.013c0 .926.661 1.66 1.538 1.66.554 0 .904-.217 1.282-.585l.297.3c-.405.421-.877.707-1.592.707-1.147.014-1.997-.898-1.997-2.054"/></g><mask id="o" width="260" height="148" x="-59" y="-33" maskUnits="userSpaceOnUse" style="mask-type:luminance"><path fill="#fff" d="M200.426-32.356H-58.676v146.951h259.102z"/></mask><g mask="url(#o)"><path fill="#B2282F" d="M86.165 57.502c0-1.116.823-2.096 2.038-2.096s2.024.966 2.024 2.068v.014c0 1.116-.823 2.082-2.038 2.082s-2.024-.966-2.024-2.068m3.603 0c0-.926-.661-1.674-1.579-1.674s-1.565.735-1.565 1.646v.014c0 .912.661 1.66 1.579 1.66s1.565-.735 1.565-1.646"/></g><mask id="p" width="260" height="148" x="-59" y="-33" maskUnits="userSpaceOnUse" style="mask-type:luminance"><path fill="#fff" d="M200.426-32.356H-58.676v146.951h259.102z"/></mask><g mask="url(#p)"><path fill="#B2282F" d="M91.32 55.474h.432l2.51 3.225v-3.225h.432v4.028h-.351l-2.578-3.307v3.307h-.445z"/></g><mask id="q" width="260" height="148" x="-59" y="-33" maskUnits="userSpaceOnUse" style="mask-type:luminance"><path fill="#fff" d="M200.426-32.356H-58.676v146.951h259.102z"/></mask><g mask="url(#q)"><path fill="#B2282F" d="M97.015 55.896h-1.336v-.422h3.13v.422h-1.335v3.606h-.46z"/></g><mask id="r" width="260" height="148" x="-59" y="-33" maskUnits="userSpaceOnUse" style="mask-type:luminance"><path fill="#fff" d="M200.426-32.356H-58.676v146.951h259.102z"/></mask><g mask="url(#r)"><path fill="#B2282F" d="M99.795 55.474h1.714c.499 0 .877.15 1.133.408.203.205.311.477.311.79v.013c0 .667-.459 1.061-1.08 1.17l1.228 1.647h-.553l-1.161-1.565h-1.147v1.565h-.445zm1.673 2.055c.594 0 1.026-.313 1.026-.83v-.014c0-.503-.378-.789-1.026-.789h-1.228v1.633z"/></g><mask id="s" width="260" height="148" x="-59" y="-33" maskUnits="userSpaceOnUse" style="mask-type:luminance"><path fill="#fff" d="M200.426-32.356H-58.676v146.951h259.102z"/></mask><g mask="url(#s)"><path fill="#B2282F" d="M108.512 57.502c0-1.143.851-2.096 2.025-2.096.728 0 1.16.259 1.552.64l-.311.326c-.337-.326-.702-.558-1.255-.558-.877 0-1.538.721-1.538 1.647v.013c0 .926.661 1.66 1.538 1.66.553 0 .904-.217 1.282-.585l.297.3c-.405.421-.877.707-1.592.707-1.147.014-1.998-.898-1.998-2.054"/></g><mask id="t" width="260" height="148" x="-59" y="-33" maskUnits="userSpaceOnUse" style="mask-type:luminance"><path fill="#fff" d="M200.426-32.356H-58.676v146.951h259.102z"/></mask><g mask="url(#t)"><path fill="#B2282F" d="M114.086 55.896h-1.336v-.422h3.131v.422h-1.336v3.606h-.459z"/></g><mask id="u" width="260" height="148" x="-59" y="-33" maskUnits="userSpaceOnUse" style="mask-type:luminance"><path fill="#fff" d="M200.426-32.356H-58.676v146.951h259.102z"/></mask><g mask="url(#u)"><path fill="#B2282F" d="M117.352 55.474h-.446v4.028h.446z"/></g><mask id="v" width="260" height="148" x="-59" y="-33" maskUnits="userSpaceOnUse" style="mask-type:luminance"><path fill="#fff" d="M200.426-32.356H-58.676v146.951h259.102z"/></mask><g mask="url(#v)"><path fill="#B2282F" d="M118.661 55.474h.418l2.51 3.225v-3.225h.445v4.028h-.364l-2.578-3.307v3.307h-.431z"/></g><mask id="w" width="260" height="148" x="-59" y="-33" maskUnits="userSpaceOnUse" style="mask-type:luminance"><path fill="#fff" d="M200.426-32.356H-58.676v146.951h259.102z"/></mask><g mask="url(#w)"><path fill="#B2282F" d="M123.127 57.502c0-1.116.81-2.096 1.998-2.096.674 0 1.093.19 1.484.53l-.297.341c-.297-.272-.661-.463-1.214-.463-.877 0-1.512.749-1.512 1.647v.013c0 .966.608 1.674 1.579 1.674.459 0 .877-.177 1.147-.408v-1.007h-1.214v-.408h1.646v1.605c-.364.34-.918.613-1.606.613-1.241.027-2.011-.898-2.011-2.041"/></g><mask id="x" width="260" height="148" x="-59" y="-33" maskUnits="userSpaceOnUse" style="mask-type:luminance"><path fill="#fff" d="M200.426-32.356H-58.676v146.951h259.102z"/></mask><g mask="url(#x)"><path fill="#B2282F" d="M56.071 55.447h-.418l-1.822 4.055h.459l.472-1.062.176-.408.917-2.054.905 2.054.175.408.472 1.062h.486z"/></g><mask id="y" width="260" height="148" x="-59" y="-33" maskUnits="userSpaceOnUse" style="mask-type:luminance"><path fill="#fff" d="M200.426-32.356H-58.676v146.951h259.102z"/></mask><g mask="url(#y)"><path fill="#B2282F" d="M105.948 55.447h-.418l-1.822 4.055h.459l.472-1.062.176-.408.917-2.054.905 2.054.175.408.472 1.062h.486z"/></g></g></g><defs><clipPath id="a"><path fill="#fff" d="M0 0h147v79H0z"/></clipPath></defs></svg>