<svg width="72" height="69" viewBox="0 0 72 69" fill="none" xmlns="http://www.w3.org/2000/svg">
<path d="M70.8996 68.4996H35.3058C35.3692 63.9293 36.2977 59.4109 38.048 55.1852C39.8622 50.8053 42.521 46.8255 45.8732 43.4733C49.2254 40.1211 53.2053 37.4623 57.5851 35.6481C61.8108 33.8977 66.3292 32.9692 70.8996 32.9059V68.4996Z" stroke="#B2282F"/>
<path d="M36.0938 0.5C36.0304 5.07044 35.1019 9.5887 33.3516 13.8145C31.5374 18.1943 28.8786 22.1742 25.5264 25.5264C22.1742 28.8786 18.1943 31.5383 13.8145 33.3525C9.5888 35.1028 5.07031 36.0295 0.5 36.0928V0.5H36.0938Z" stroke="#B2282F"/>
<circle cx="35" cy="35" r="11.5" stroke="#B2282F"/>
</svg>
